<svg xmlns="http://www.w3.org/2000/svg" viewBox="0 0 36 36"><path fill="#8CCAF7" d="M18 1c9.941 0 18 6.268 18 14 0 4.368-2.574 8.268-6.604 10.835C29.92 28.144 31.141 31.569 34 35c-5.758-.96-9.44-3.761-11.716-6.416-1.376.262-2.805.416-4.284.416-9.941 0-18-6.268-18-14S8.059 1 18 1z"/></svg>F5F8FA" d="M33.817 18c0 2.904-7.087 9.667-15.826 9.667-8.74 0-15.825-5.935-15.825-9.667 0-2.912 7.085-9.666 15.825-9.666C26.73 8.333 33.817 15.088 33.817 18z"/><circle fill="#8B5E3C" cx="18" cy="18" r="8.458"/><circle fill="#292F33" cx="18" cy="18" r="4.708"/><circle fill="#F5F8FA" cx="14.983" cy="15" r="2"/></svg>